# xmcd
#
# Track frame offsets: 
#        150
#        15012
#        30426
#        52993
#
# Disc length: 909 seconds
#
# Revision: 4
# Processed by: cddbd v1.4PL0 Copyright (c) Steve Scherf et al.
# Submitted via: ExactAudioCopy v0.90b4
#
DISCID=1a038b04
DTITLE=BigBang - New Glow
DYEAR=2000
DGENRE=Rock
TTITLE0=New Glow
TTITLE1=All Alone
TTITLE2=Old People
TTITLE3=Running Along
EXTD=
EXTT0=
EXTT1=
EXTT2=
EXTT3=
PLAYORDER=
